Coordinates
version=1
nRows=12
nColumns=28
inDegrees=yes

Units are S.I. units (second, meters, Newtons, ...)
Angles are in degrees.

endheader
time	pelvis_tilt	pelvis_list	pelvis_rotation	pelvis_tx	pelvis_ty	pelvis_tz	hip_flexion_r	hip_adduction_r	hip_rotation_r	knee_angle_r	ankle_angle_r	subtalar_angle_r	mtp_angle_r	hip_flexion_l	hip_adduction_l	hip_rotation_l	knee_angle_l	socket_flexion	socket_adduction	socket_rotation	socket_tx	socket_ty	socket_tz	foot_flex	lumbar_extension	lumbar_bending	lumbar_rotation
      0.31666667	      1.03456569	     -1.28781386	     -3.59278571	     -0.45585157	      1.02913158	      0.29552980	     15.07788931	      1.64808810	     -1.78590680	    -65.28670881	      9.90733511	    -13.91230446	     -3.52672495	      0.32079115	     -0.67240141	     -6.87833619	     -3.10988415	      1.39532336	      0.65603659	     17.20843567	      0.00085339	     -0.00876942	     -0.00575412	     -0.67206783	    -11.05306005	     -2.40875395	      4.01875836
      0.32083333	      1.09838481	     -1.30944016	     -3.48841815	     -0.45094307	      1.02977963	      0.29548333	     15.59174633	      1.68598691	     -1.83023322	    -64.90432120	     10.00443711	    -13.87201649	     -3.52008073	      0.07341830	     -0.69033282	     -6.91767793	     -3.15720051	      1.42122681	      0.68328627	     17.22162442	      0.00198227	     -0.00829441	     -0.00609748	     -0.67136716	    -11.23177494	     -2.38742710	      3.99694767
      0.32500000	      1.33015775	     -2.02233823	     -3.22197321	     -0.44482317	      1.03041290	      0.29523132	     15.58766904	      2.41798126	     -2.16922242	    -64.16680223	     11.22840784	    -12.56881023	     -3.57391378	     -0.96801654	     -1.72766882	     -6.71137440	     -2.90575819	      1.08877647	      1.00541118	     17.34723149	     -0.00143656	     -0.00936188	     -0.00859814	     -0.62049864	    -11.42460941	     -1.45180596	      3.44706546
      0.32916667	      1.39068202	     -2.02579184	     -3.11212199	     -0.43996316	      1.03093816	      0.29519737	     16.10271360	      2.43247758	     -2.21546800	    -63.75578206	     11.28867672	    -12.57363594	     -3.58249830	     -1.21626248	     -1.72034171	     -6.74043716	     -2.95266989	      1.11921497	      1.02455559	     17.37988088	     -0.00042588	     -0.00891890	     -0.00878582	     -0.56262705	    -11.59254949	     -1.45483030	      3.44338844
      0.33333333	      1.37809150	     -2.16178629	     -2.87065925	     -0.43390066	      1.03149695	      0.29486173	     16.42875779	      2.54710501	     -2.40453255	    -63.01779829	     11.62319891	    -12.52939914	     -3.61476405	     -1.77210761	     -1.80323292	     -6.69950003	     -2.80368748	      1.00869471	      0.95471480	     17.62724236	     -0.00178457	     -0.00865555	     -0.00791478	     -0.23397907	    -11.43532748	     -1.27375060	      3.38704915
      0.33750000	      1.43096800	     -2.42715254	     -2.67419767	     -0.42805037	      1.03197141	      0.29447848	     16.72059064	      2.75727019	     -2.67572582	    -62.30695954	     12.09282710	    -12.32352302	     -3.66543094	     -2.38890611	     -2.06998958	     -6.68489796	     -2.64695884	      0.87061759	      0.93474741	     17.80488406	     -0.00314157	     -0.00874672	     -0.00768138	     -0.12974534	    -11.43130346	     -0.88759593	      3.23190625
      0.34166667	      1.50218382	     -2.43298066	     -2.60406993	     -0.42342733	      1.03229243	      0.29452060	     17.24430633	      2.76598538	     -2.71786650	    -61.87618423	     12.16195248	    -12.29995122	     -3.67136435	     -2.62148476	     -2.09591127	     -6.70583300	     -2.70531768	      0.90493578	      0.97355878	     17.83032835	     -0.00207387	     -0.00849812	     -0.00814738	     -0.11536436	    -11.64878924	     -0.87557862	      3.21161661
      0.34583333	      1.89361208	     -3.21818586	     -2.23477870	     -0.41728865	      1.03310965	      0.29416909	     16.94295434	      3.51719829	     -3.22287608	    -60.79212067	     13.03662649	    -11.50905358	     -4.03870927	     -3.76070928	     -3.25439179	     -6.59348613	     -2.48962087	      0.58660589	      1.33852674	     17.97199069	     -0.00514329	     -0.00934027	     -0.01093439	     -0.04127090	    -12.00044427	      0.15009743	      2.62942765
      0.35000000	      1.93171417	     -3.22011618	     -2.09991582	     -0.41217221	      1.03350682	      0.29420962	     17.32912461	      3.54849202	     -3.24411735	    -60.07948757	     13.13942320	    -11.56729024	     -4.11221828	     -4.09099639	     -3.27510307	     -6.53770551	     -2.47801051	      0.57730189	      1.32947569	     18.12187957	     -0.00490410	     -0.00894859	     -0.01101153	      0.16387995	    -12.05914384	      0.11574461	      2.62320140
      0.35416667	      1.95651748	     -3.29198158	     -1.94463379	     -0.40669646	      1.03384866	      0.29400740	     17.66707007	      3.58470781	     -3.39296610	    -59.29160231	     13.33929254	    -11.64237974	     -4.19094110	     -4.50193967	     -3.31627783	     -6.57210882	     -2.42010942	      0.53493025	      1.29262288	     18.23314822	     -0.00513182	     -0.00873625	     -0.01066784	      0.31054237	    -12.04643656	      0.22576096	      2.59154222
      0.35833333	      2.45710642	     -4.01446715	     -1.60987824	     -0.40123917	      1.03465822	      0.29381732	     17.33120140	      4.32698445	     -3.79619997	    -58.20974314	     13.80690126	    -11.60057854	     -5.09778798	     -5.66506260	     -4.42205821	     -6.45914191	     -2.23021256	      0.25083925	      1.62425599	     18.40043032	     -0.00793926	     -0.00946075	     -0.01330438	      0.37402610	    -12.65039094	      1.14974043	      2.12416298
      0.36250000	      2.45268714	     -3.99256124	     -1.51087228	     -0.39600380	      1.03490457	      0.29380837	     17.71218430	      4.28769153	     -3.86837247	    -57.39221789	     13.94352097	    -11.69643406	     -5.16688197	     -5.95693234	     -4.37722428	     -6.50914091	     -2.22535654	      0.24916728	      1.60854852	     18.45787244	     -0.00762240	     -0.00910384	     -0.01311705	      0.52118346	    -12.63186913	      1.11696028	      2.14530942
